HIERARCHY
ROOT SimulationBone
{
	OFFSET 0.000000 0.000000 0.000000
	CHANNELS 6 Xposition Yposition Zposition Zrotation Yrotation Xrotation 
	JOINT Hips
	{
		OFFSET 0.000000 0.000000 0.000000
		CHANNELS 6 Xposition Yposition Zposition Zrotation Yrotation Xrotation 
		JOINT LeftUpLeg
		{
			OFFSET 0.103457 1.857834 10.548504
			CHANNELS 3 Zrotation Yrotation Xrotation
			JOINT LeftLeg
			{
				OFFSET 43.499996 -0.000046 0.000000
				CHANNELS 3 Zrotation Yrotation Xrotation
				JOINT LeftFoot
				{
					OFFSET 42.372192 0.000027 0.000002
					CHANNELS 3 Zrotation Yrotation Xrotation
					JOINT LeftToe
					{
						OFFSET 17.299994 -0.000003 -0.000001
						CHANNELS 3 Zrotation Yrotation Xrotation
						End Site
						{
							OFFSET 0.000000 0.000000 0.000000
						}
					}
				}
			}
		}
		JOINT RightUpLeg
		{
			OFFSET 0.103456 1.857832 -10.548504
			CHANNELS 3 Zrotation Yrotation Xrotation
			JOINT RightLeg
			{
				OFFSET 43.500046 -0.000011 0.000010
				CHANNELS 3 Zrotation Yrotation Xrotation
				JOINT RightFoot
				{
					OFFSET 42.372261 -0.000034 0.000021
					CHANNELS 3 Zrotation Yrotation Xrotation
					JOINT RightToe
					{
						OFFSET 17.300011 0.000001 0.000002
						CHANNELS 3 Zrotation Yrotation Xrotation
						End Site
						{
							OFFSET 0.000000 0.000000 0.000000
						}
					}
				}
			}
		}
		JOINT Spine
		{
			OFFSET 6.901965 -2.603721 0.000001
			CHANNELS 3 Zrotation Yrotation Xrotation
			JOINT Spine1
			{
				OFFSET 12.588100 0.000000 -0.000000
				CHANNELS 3 Zrotation Yrotation Xrotation
				JOINT Spine2
				{
					OFFSET 12.343206 0.000005 0.000000
					CHANNELS 3 Zrotation Yrotation Xrotation
					JOINT Neck
					{
						OFFSET 25.832893 -0.000008 0.000000
						CHANNELS 3 Zrotation Yrotation Xrotation
						JOINT Head
						{
							OFFSET 11.766617 0.000009 0.000001
							CHANNELS 3 Zrotation Yrotation Xrotation
							End Site
							{
								OFFSET 0.000000 0.000000 0.000000
							}
						}
					}
					JOINT LeftShoulder
					{
						OFFSET 19.745899 -1.480394 6.000106
						CHANNELS 3 Zrotation Yrotation Xrotation
						JOINT LeftArm
						{
							OFFSET 11.284122 -0.000030 -0.000014
							CHANNELS 3 Zrotation Yrotation Xrotation
							JOINT LeftForeArm
							{
								OFFSET 33.000050 0.000020 0.000016
								CHANNELS 3 Zrotation Yrotation Xrotation
								JOINT LeftHand
								{
									OFFSET 25.200014 -0.000003 0.000011
									CHANNELS 3 Zrotation Yrotation Xrotation
									End Site
									{
										OFFSET 0.000000 0.000000 0.000000
									}
								}
							}
						}
					}
					JOINT RightShoulder
					{
						OFFSET 19.746094 -1.480381 -6.000073
						CHANNELS 3 Zrotation Yrotation Xrotation
						JOINT RightArm
						{
							OFFSET 11.284140 -0.000016 -0.000006
							CHANNELS 3 Zrotation Yrotation Xrotation
							JOINT RightForeArm
							{
								OFFSET 33.000088 0.000015 0.000002
								CHANNELS 3 Zrotation Yrotation Xrotation
								JOINT RightHand
								{
									OFFSET 25.199776 0.000133 0.000416
									CHANNELS 3 Zrotation Yrotation Xrotation
									End Site
									{
										OFFSET 0.000000 0.000000 0.000000
									}
								}
							}
						}
					}
				}
			}
		}
	}
}
MOTION
Frames: 6
Frame Time: 0.033333
-1.348781 0.000000 432.566407 0.000000 263.563560 0.000000 3.112360 90.954353 -1.501917 97.894234 -3.328522 178.781275 -177.064185 0.300913 173.516735 -20.547702 -3.899694 -11.006700 88.593537 6.970724 -3.998497 21.454553 0.003096 0.000001 170.605134 17.358314 -175.306340 -18.722283 2.319230 12.858971 72.824843 -6.397008 9.946103 21.454562 -0.003099 -0.000017 6.886308 -0.702470 -0.090325 3.761280 -1.401723 -0.203157 3.443072 -1.402790 -0.194687 -13.157678 -7.157829 0.980000 6.724058 5.080574 -2.541376 -172.333008 -81.051519 -9.285668 -37.990260 48.583583 27.920668 -97.825869 -0.900343 2.716146 6.206222 8.525498 22.209950 137.198133 74.039435 -42.393372 -12.112648 -51.388677 -48.239328 -39.411097 15.273859 -1.488102 10.884029 1.191952 -14.089903 
-2.161151 0.000000 432.996198 0.000000 263.860456 0.000000 3.156654 91.007263 -1.424609 97.766337 -3.044488 178.728765 -176.721214 -0.507906 173.429322 -20.299971 -3.814932 -10.763553 88.468087 6.714842 -4.573751 21.454553 0.003087 -0.000001 170.673477 16.692894 -175.093853 -19.221870 2.322701 12.859341 72.742833 -6.372408 10.010680 21.454558 -0.003103 -0.000017 6.768332 -0.610435 -0.140383 3.525579 -1.216442 -0.299089 3.207417 -1.218083 -0.291718 -12.986980 -7.257488 1.145653 6.784619 5.259359 -2.435337 -168.782662 -81.323005 -12.889229 -39.061282 49.433054 27.563071 -97.186331 -1.069999 2.699546 6.817181 8.471804 24.137863 137.350077 74.242811 -42.222730 -12.965873 -51.064830 -48.363511 -39.460185 15.113132 -1.478910 10.881660 1.340008 -14.451302 
-3.033189 0.000000 433.452751 0.000000 264.223650 0.000000 3.212175 91.060066 -1.296619 97.662742 -2.686600 178.674409 -176.335609 -1.464203 173.239443 -20.058853 -3.691971 -10.426377 88.333648 6.380546 -5.222564 21.454551 0.003099 0.000001 170.745672 15.943212 -174.629181 -19.881103 2.359714 12.751545 72.866227 -6.387199 9.720226 21.454558 -0.003106 -0.000018 6.655616 -0.505090 -0.204023 3.300369 -1.004301 -0.422163 2.982221 -1.006696 -0.416081 -12.794365 -7.256169 1.234372 6.758272 5.349098 -2.353074 -164.497593 -81.605386 -17.234587 -40.413420 50.252997 26.906320 -96.428344 -1.240363 2.677718 7.208688 8.480910 26.398949 137.545721 74.373793 -42.013672 -13.728572 -50.679481 -48.510906 -39.705836 14.938404 -1.473930 10.748491 1.417742 -14.773257 
-3.959581 0.000000 433.931656 0.000000 264.651579 0.000000 3.269612 91.117363 -1.114244 97.589420 -2.258673 178.661608 -175.906604 -2.590997 172.885448 -19.809582 -3.546421 -9.930747 88.178029 5.927797 -5.913301 21.454553 0.003100 0.000002 170.884940 15.109604 -173.812701 -20.609905 2.386281 12.517999 73.156046 -6.392741 9.179454 21.454558 -0.003107 -0.000018 6.550435 -0.389606 -0.290718 3.090086 -0.771483 -0.591568 2.771971 -0.774907 -0.586905 -12.427387 -7.099799 1.249333 6.399112 5.291323 -2.265853 -159.863719 -81.955795 -21.928128 -41.963101 50.949605 26.093138 -95.592206 -1.430824 2.653815 7.473853 8.617534 28.251641 138.095797 74.428045 -41.450953 -14.523504 -50.303182 -48.576032 -39.980700 14.772238 -1.472151 10.427750 1.337545 -15.390090 
-4.935828 0.000000 434.428622 0.000000 265.131414 0.000000 3.337941 91.171654 -0.901066 97.561680 -1.797618 178.673271 -175.386281 -3.803895 172.618538 -19.467774 -3.421917 -9.444021 87.991415 5.467598 -6.661542 21.454553 0.003095 -0.000000 171.110432 14.176897 -173.045657 -21.358316 2.405453 12.382676 73.647184 -6.498867 8.565444 21.454557 -0.003113 -0.000020 6.458020 -0.278208 -0.382244 2.905070 -0.546978 -0.771230 2.586978 -0.551489 -0.767894 -11.944730 -6.765978 1.163080 5.784177 5.094947 -2.192935 -156.296407 -81.975002 -25.542080 -43.291388 51.099360 25.634485 -94.836432 -1.577045 2.630402 7.639088 8.375872 29.353264 139.241015 74.391422 -40.291016 -15.332223 -49.971850 -48.622040 -40.159091 14.698033 -1.471570 10.185436 1.386100 -16.273728 
-5.956245 0.000000 434.939511 0.000000 265.649154 0.000000 3.412077 91.224823 -0.675554 97.560412 -1.277090 178.699195 -174.795456 -5.113007 172.320277 -19.034173 -3.285719 -8.923315 87.775383 4.972799 -7.441973 21.454550 0.003088 -0.000001 171.491406 13.098505 -172.682960 -21.919873 2.514572 12.569022 74.280097 -6.803032 8.083577 21.454558 -0.003110 -0.000018 6.383484 -0.142400 -0.477584 2.755282 -0.273663 -0.958356 2.437231 -0.279306 -0.956690 -11.567626 -6.833500 1.166578 5.127445 5.194823 -2.239018 -154.842765 -81.518622 -27.024538 -44.242414 50.758332 25.504906 -94.171698 -1.701811 2.609543 7.546232 7.932446 30.138380 139.967556 74.466704 -39.547195 -16.160006 -49.839785 -48.548425 -40.250657 14.640948 -1.471815 10.158339 1.563440 -16.867371 
